<svg xmlns="http://www.w3.org/2000/svg" width="512" height="512">
    <path
        d="M298.789 313.693c-12.738 8.492-27.534 12.981-42.789 12.981s-30.05-4.489-42.788-12.981L3.409 173.82A76.27 76.27 0 0 1 0 171.403V400.6c0 26.278 21.325 47.133 47.133 47.133h417.733c26.278 0 47.133-21.325 47.133-47.133V171.402a75.21 75.21 0 0 1-3.416 2.422zM20.05 148.858l209.803 139.874c7.942 5.295 17.044 7.942 26.146 7.942a47.08 47.08 0 0 0 26.148-7.942L491.95 148.858c12.555-8.365 20.05-22.365 20.05-37.475 0-25.981-21.137-47.117-47.117-47.117H47.117C21.137 64.267 0 85.403 0 111.408a44.91 44.91 0 0 0 20.05 37.45z"
        fill="#ffffff"
    />
</svg>