<svg xmlns="http://www.w3.org/2000/svg" width="512" height="512">
    <path
        d="M368.467 512c-89.756 0-185.605-32.981-260.547-107.921C33.103 329.261 0 233.476 0 143.533 0 64.264 64.132 0 143.533 0a15 15 0 0 1 13.927 9.429l64.267 160.667c3.077 7.692-.664 16.421-8.355 19.498l-70.597 28.238c4.994 81.218 70.188 146.408 151.393 151.395l28.239-70.597c3.07-7.679 11.796-11.434 19.498-8.356L502.57 354.54a15 15 0 0 1 9.43 13.927C512 447.736 447.868 512 368.467 512z"
        fill="#ffffff"
    />
</svg>